{"title":"Bostons Finest S02E05 HDTV x264-KILLERS [P2PDL]","uid":9394027,"size":653481786,"categoryP":"video","categoryS":"tv_shows","magnet":"?xt=urn:btih:e44188d1241fe044a289b286dbdc8e725c0d738d&amp;dn=Bostons+Finest+S02E05+HDTV+x264-KILLERS+%5BP2PDL%5D&amp;tr=udp%3A%2F%2Ftracker.openbittorrent.com%3A80&amp;tr=udp%3A%2F%2Fopen.demonii.com%3A1337&amp;tr=udp%3A%2F%2Ftracker.coppersurfer.tk%3A6969&amp;tr=udp%3A%2F%2Fexodus.desync.com%3A6969","seeders":1,"leechers":0,"uploader":"ValidusVyto","files":21,"time":1387945053,"description":"Bostons.Finest.S02E05.HDTV.x264-KILLERS\n\nInfo:\nGeneral\nComplete name                            : Bostons.Finest.S02E05.HDTV.x264-KILLERS.[P2PDL]/bostons.finest.s02e05.hdtv.x264-killers.mp4\nFormat                                   : MPEG-4\nFormat profile                           : Base Media\nCodec ID                                 : isom\nFile size                                : 312 MiB\nDuration                                 : 41mn 29s\nOverall bit rate mode                    : Variable\nOverall bit rate                         : 1 050 Kbps\nEncoded date                             : UTC 2013-12-25 03:04:54\nTagged date                              : UTC 2013-12-25 03:04:54\n\nVideo\nID                                       : 2\nFormat                                   : AVC\nFormat/Info                              : Advanced Video Codec\nFormat profile                           : &lt;a class=&quot;__cf_email__&quot; href=&quot;/cdn-cgi/l/email-protection&quot; data-cfemail=&quot;b4fcddd3dcf4f8879a85&quot;&gt;[email&amp;#160;protected]&lt;/a&gt;&lt;script cf-hash='f9e31' type=&quot;text/javascript&quot;&gt;\n/* &lt;![CDATA[ */!function(){try{var t=&quot;currentScript&quot;in document?document.currentScript:function(){for(var t=document.getElementsByTagName(&quot;script&quot;),e=t.length;e--;)if(t[e].getAttribute(&quot;cf-hash&quot;))return t[e]}();if(t&amp;&amp;t.previousSibling){var e,r,n,i,c=t.previousSibling,a=c.getAttribute(&quot;data-cfemail&quot;);if(a){for(e=&quot;&quot;,r=parseInt(a.substr(0,2),16),n=2;a.length-n;n+=2)i=parseInt(a.substr(n,2),16)^r,e+=String.fromCharCode(i);e=document.createTextNode(e),c.parentNode.replaceChild(e,c)}}}catch(u){}}();/* ]]&gt; */&lt;/script&gt;\nFormat settings, CABAC                   : Yes\nFormat settings, ReFrames                : 5 frames\nCodec ID                                 : avc1\nCodec ID/Info                            : Advanced Video Coding\nDuration                                 : 41mn 29s\nSource duration                          : 41mn 29s\nBit rate                                 : 920 Kbps\nMaximum bit rate                         : 6 355 Kbps\nWidth                                    : 720 pixels\nHeight                                   : 404 pixels\nDisplay aspect ratio                     : 16:9\nFrame rate mode                          : Constant\nFrame rate                               : 23.976 fps\nColor space                              : YUV\nChroma subsampling                       : 4:2:0\nBit depth                                : 8 bits\nScan type                                : Progressive\nBits/(Pixel*Frame)                       : 0.132\nStream size                              : 273 MiB (88%)\nSource stream size                       : 273 MiB (88%)\nWriting library                          : x264 core 140 r2377 1ca7bb9\nEncoding settings                        : cabac=1 / ref=5 / deblock=1:0:0 / analyse=0x3:0x113 / me=umh / subme=8 / psy=1 / psy_rd=1.00:0.00 / mixed_ref=1 / me_range=16 / chroma_me=1 / trellis=1 / 8x8dct=1 / cqm=0 / deadzone=21,11 / fast_pskip=1 / chroma_qp_offset=-2 / threads=18 / lookahead_threads=3 / sliced_threads=0 / nr=0 / decimate=1 / interlaced=0 / bluray_compat=0 / constrained_intra=0 / bframes=3 / b_pyramid=2 / b_adapt=2 / b_bias=0 / direct=3 / weightb=1 / open_gop=0 / weightp=2 / keyint=250 / keyint_min=23 / scenecut=40 / intra_refresh=0 / rc_lookahead=50 / rc=crf / mbtree=1 / crf=21.0 / qcomp=0.60 / qpmin=0 / qpmax=69 / qpstep=4 / ip_ratio=1.40 / aq=1:1.00\nEncoded date                             : UTC 2013-12-25 02:11:49\nTagged date                              : UTC 2013-12-25 03:04:55\nMatrix coefficients                      : BT.709\n\nAudio\nID                                       : 1\nFormat                                   : AAC\nFormat/Info                              : Advanced Audio Codec\nFormat profile                           : LC\nCodec ID                                 : 40\nDuration                                 : 41mn 29s\nBit rate mode                            : Variable\nBit rate                                 : 126 Kbps\nMaximum bit rate                         : 160 Kbps\nChannel(s)                               : 2 channels\nChannel positions                        : Front: L R\nSampling rate                            : 48.0 KHz\nCompression mode                         : Lossy\nDelay relative to video                  : 83ms\nStream size                              : 37.5 MiB (12%)\nEncoded date                             : UTC 2013-12-25 03:04:54\nTagged date                              : UTC 2013-12-25 03:04:55\n\n\n\n\nScreenshots: &lt;a href=&quot;\nhttp://beeimg.com/images/y15255829491.jpg&quot; rel=&quot;nofollow&quot; target=&quot;_NEW&quot;&gt;\nhttp://beeimg.com/images/y15255829491.jpg&lt;/a&gt; &lt;a href=&quot;\nhttp://beeimg.com/images/m92481137352.jpg&quot; rel=&quot;nofollow&quot; target=&quot;_NEW&quot;&gt;\nhttp://beeimg.com/images/m92481137352.jpg&lt;/a&gt;","torrent":{"xt":"urn:btih:e44188d1241fe044a289b286dbdc8e725c0d738d","amp;dn":"Bostons+Finest+S02E05+HDTV+x264-KILLERS+%5BP2PDL%5D","amp;tr":["udp%3A%2F%2Ftracker.openbittorrent.com%3A80","udp%3A%2F%2Fopen.demonii.com%3A1337","udp%3A%2F%2Ftracker.coppersurfer.tk%3A6969","udp%3A%2F%2Fexodus.desync.com%3A6969"],"infoHash":"e44188d1241fe044a289b286dbdc8e725c0d738d","infoHashBuffer":{"type":"Buffer","data":[228,65,136,209,36,31,224,68,162,137,178,134,219,220,142,114,92,13,115,141]},"announce":[],"urlList":[]}}